<svg width="18" height="19" viewBox="0 0 18 13" fill="none" xmlns="http://www.w3.org/2000/svg">
<path d="M17.7851 1.67389L6.7851 12.6739C6.72125 12.7378 6.64542 12.7885 6.56196 12.8231C6.4785 12.8577 6.38904 12.8755 6.29869 12.8755C6.20834 12.8755 6.11888 12.8577 6.03542 12.8231C5.95196 12.7885 5.87614 12.7378 5.81229 12.6739L0.999785 7.86139C0.870782 7.73239 0.798309 7.55742 0.798309 7.37499C0.798309 7.19255 0.870782 7.01758 0.999785 6.88858C1.12879 6.75958 1.30375 6.6871 1.48619 6.6871C1.66863 6.6871 1.84359 6.75958 1.9726 6.88858L6.29869 11.2155L16.8123 0.701079C16.9413 0.572076 17.1163 0.499603 17.2987 0.499603C17.4811 0.499603 17.6561 0.572076 17.7851 0.701079C17.9141 0.830082 17.9866 1.00505 17.9866 1.18749C17.9866 1.36992 17.9141 1.54489 17.7851 1.67389Z" fill="#1EDF4FFF"/>
</svg>
