<?xml version="1.0" encoding="UTF-8"?>
<svg version="1.1" xmlns="http://www.w3.org/2000/svg" width="200" height="200">
<path d="M0 0 C1.09183594 0.32355469 2.18367187 0.64710938 3.30859375 0.98046875 C8.94605958 2.70478726 13.99420291 4.83746158 19.0625 7.8515625 C21.00105119 9.00062309 22.97431866 10.01428899 25 11 C25 11.66 25 12.32 25 13 C26.175625 13.4640625 26.175625 13.4640625 27.375 13.9375 C30 15 30 15 32 16 C32 16.66 32 17.32 32 18 C32.58910156 18.27328125 33.17820313 18.5465625 33.78515625 18.828125 C39.56430084 21.88587346 44.11643364 26.82191152 48 32 C48 32.66 48 33.32 48 34 C48.66 34 49.32 34 50 34 C53 38.38461538 53 38.38461538 53 41 C53.66 41 54.32 41 55 41 C57.02442949 44.9881261 59.01743248 48.99091642 61 53 C61.37898437 53.73863281 61.75796875 54.47726563 62.1484375 55.23828125 C65.64634793 62.44397674 67.19377579 70.24086784 69 78 C69.26586914 78.91640259 69.26586914 78.91640259 69.53710938 79.85131836 C72.69332321 94.50207679 70.79216243 111.91993512 66 126 C65.51466797 127.63775391 65.51466797 127.63775391 65.01953125 129.30859375 C63.29521274 134.94605958 61.16253842 139.99420291 58.1484375 145.0625 C56.99937691 147.00105119 55.98571101 148.97431866 55 151 C54.34 151 53.68 151 53 151 C52.690625 151.78375 52.38125 152.5675 52.0625 153.375 C51 156 51 156 50 158 C49.34 158 48.68 158 48 158 C47.72671875 158.58910156 47.4534375 159.17820313 47.171875 159.78515625 C44.11412654 165.56430084 39.17808848 170.11643364 34 174 C33.34 174 32.68 174 32 174 C32 174.66 32 175.32 32 176 C27.61538462 179 27.61538462 179 25 179 C25 179.66 25 180.32 25 181 C21.0118739 183.02442949 17.00908358 185.01743248 13 187 C12.26136719 187.37898437 11.52273437 187.75796875 10.76171875 188.1484375 C3.55602326 191.64634793 -4.24086784 193.19377579 -12 195 C-12.91640259 195.26586914 -12.91640259 195.26586914 -13.85131836 195.53710938 C-28.50207679 198.69332321 -45.91993512 196.79216243 -60 192 C-61.09183594 191.67644531 -62.18367188 191.35289062 -63.30859375 191.01953125 C-68.94605958 189.29521274 -73.99420291 187.16253842 -79.0625 184.1484375 C-81.00105119 182.99937691 -82.97431866 181.98571101 -85 181 C-85 180.34 -85 179.68 -85 179 C-85.78375 178.690625 -86.5675 178.38125 -87.375 178.0625 C-90 177 -90 177 -92 176 C-92 175.34 -92 174.68 -92 174 C-92.88365234 173.59007812 -92.88365234 173.59007812 -93.78515625 173.171875 C-99.56430084 170.11412654 -104.11643364 165.17808848 -108 160 C-108 159.34 -108 158.68 -108 158 C-108.66 158 -109.32 158 -110 158 C-113 153.61538462 -113 153.61538462 -113 151 C-113.66 151 -114.32 151 -115 151 C-117.02442949 147.0118739 -119.01743248 143.00908358 -121 139 C-121.37898438 138.26136719 -121.75796875 137.52273437 -122.1484375 136.76171875 C-125.64634793 129.55602326 -127.19377579 121.75913216 -129 114 C-129.26586914 113.08359741 -129.26586914 113.08359741 -129.53710938 112.14868164 C-132.69332321 97.49792321 -130.79216243 80.08006488 -126 66 C-125.67644531 64.90816406 -125.35289063 63.81632812 -125.01953125 62.69140625 C-123.29521274 57.05394042 -121.16253842 52.00579709 -118.1484375 46.9375 C-116.99937691 44.99894881 -115.98571101 43.02568134 -115 41 C-114.34 41 -113.68 41 -113 41 C-112.5359375 39.824375 -112.5359375 39.824375 -112.0625 38.625 C-111 36 -111 36 -110 34 C-109.34 34 -108.68 34 -108 34 C-107.72671875 33.41089844 -107.4534375 32.82179687 -107.171875 32.21484375 C-104.11412654 26.43569916 -99.17808848 21.88356636 -94 18 C-93.34 18 -92.68 18 -92 18 C-92 17.34 -92 16.68 -92 16 C-87.61538462 13 -87.61538462 13 -85 13 C-85 12.34 -85 11.68 -85 11 C-81.0118739 8.97557051 -77.00908358 6.98256752 -73 5 C-71.89205078 4.43152344 -71.89205078 4.43152344 -70.76171875 3.8515625 C-63.55602326 0.35365207 -55.75913216 -1.19377579 -48 -3 C-47.08359741 -3.26586914 -47.08359741 -3.26586914 -46.14868164 -3.53710938 C-31.49792321 -6.69332321 -14.08006488 -4.79216243 0 0 Z " fill="#D1222C" transform="translate(130,4)"/>
<path d="M0 0 C3.63667593 2.54662516 7.0188502 5.0146537 9.98046875 8.3359375 C11.74309873 10.24882488 11.74309873 10.24882488 13.9140625 10.01171875 C16.42194087 8.78217527 18.05348002 7.23396022 20.046875 5.27734375 C30.48052092 -4.2683323 42.98448263 -7.50743083 56.859375 -7.41015625 C58.37047852 -7.44012695 58.37047852 -7.44012695 59.91210938 -7.47070312 C74.96918607 -7.46102012 87.20644989 -0.02328804 97.97265625 10.06640625 C102.40384634 14.52423676 105.17369773 17.59474704 105.484375 24.08984375 C105.16072513 30.01443435 102.66585507 33.07818956 98.796875 37.40234375 C94.49093694 39.83613483 90.73963196 40.12496728 85.921875 39.02734375 C82.82423381 37.08993017 80.44246593 34.65339874 77.921875 32.02734375 C71.0358892 25.55869042 64.07792023 21.65933653 54.38671875 21.81640625 C46.78800069 22.46669274 40.36014985 25.72441058 34.921875 31.02734375 C28.85736523 39.28278914 28.77470081 49.18743488 29.921875 59.02734375 C32.25727297 66.7800993 37.50184188 70.68902591 44.23828125 74.75 C50.80245305 77.87443112 58.39025175 77.92771873 65.359375 76.08984375 C70.3902565 74.26283942 73.85934998 70.85587034 77.66015625 67.18359375 C81.69099085 63.34072553 84.56103287 61.25006471 90.234375 60.71484375 C95.64700518 61.17354122 98.30639673 63.62442841 102.296875 67.08984375 C104.84806053 71.70160221 104.82659963 75.88879059 103.921875 81.02734375 C99.56621293 91.62725573 88.80039951 98.19410925 78.83984375 102.83984375 C64.52690111 108.66465575 47.04320592 107.2567842 32.859375 101.83984375 C26.30582806 98.99856404 20.95786728 95.06333603 15.921875 90.02734375 C10.77320382 90.02734375 8.54316997 92.04301766 4.98046875 95.3359375 C-7.77511642 105.8163329 -22.32772248 106.79165444 -38.078125 106.02734375 C-41.23447271 105.67315132 -44.07065734 105.0336887 -47.078125 104.02734375 C-48.26921875 103.65996094 -48.26921875 103.65996094 -49.484375 103.28515625 C-62.57287504 98.72033988 -73.79649072 87.49447145 -80.01953125 75.2421875 C-80.54353516 74.14583984 -80.54353516 74.14583984 -81.078125 73.02734375 C-81.45839844 72.28613281 -81.83867188 71.54492188 -82.23046875 70.78125 C-84.79264515 65.52012622 -85.85124904 60.85706939 -86.078125 55.02734375 C-86.13806641 53.83818359 -86.13806641 53.83818359 -86.19921875 52.625 C-86.65327092 35.71823407 -80.75338909 20.31722503 -69.171875 8 C-64.09945891 3.24980706 -58.33608338 -0.01821876 -52.078125 -2.97265625 C-50.82708984 -3.59720703 -50.82708984 -3.59720703 -49.55078125 -4.234375 C-34.05099315 -10.72107046 -13.9725094 -8.95446351 0 0 Z " fill="#FEFCFC" transform="translate(89.078125,50.97265625)"/>
<path d="M0 0 C6.10614378 4.31562042 10.79401756 8.84637719 12.54296875 16.3203125 C14.3032253 26.64113295 12.65625676 34.81248856 7.375 43.75 C2.33023258 48.52925334 -3.91059853 52.69176515 -11 53 C-12.258125 53.0825 -13.51625 53.165 -14.8125 53.25 C-22.96540179 53.09470663 -30.28513693 49.78689916 -36 44 C-42.103446 35.48171232 -44.03985144 28.48218056 -43 18 C-40.50229432 9.87965644 -35.26981735 4.09561758 -28.5 -0.8125 C-18.50731041 -5.55902756 -9.69272086 -4.9219774 0 0 Z " fill="#D1232C" transform="translate(75,76)"/>
<path d="M0 0 C0.33 0 0.66 0 1 0 C1.33 3.3 1.66 6.6 2 10 C1.01 10.33 0.02 10.66 -1 11 C-0.67 7.37 -0.34 3.74 0 0 Z " fill="#DB5259" transform="translate(193,124)"/>
</svg>
