<?xml version="1.0" encoding="UTF-8"?>
<svg version="1.1" xmlns="http://www.w3.org/2000/svg" width="1875" height="452">
<path d="M0 0 C4.78700417 4.01392968 9.09226962 8.58523271 13.32421875 13.17236328 C13.92105469 13.80126465 14.51789063 14.43016602 15.1328125 15.078125 C15.6575415 15.64813232 16.18227051 16.21813965 16.72290039 16.80541992 C18.30854048 18.13729745 18.30854048 18.13729745 20.41821289 17.70581055 C23.19749923 16.55970221 24.68782111 14.73666731 26.72265625 12.53515625 C55.18020406 -16.71519714 97.0917254 -33.88959177 137.73664856 -34.45556641 C139.94049243 -34.47069744 142.14377252 -34.4710501 144.34765625 -34.46484375 C145.11289612 -34.46396759 145.87813599 -34.46309143 146.66656494 -34.46218872 C159.56984294 -34.41367258 171.83702135 -33.46479431 184.34765625 -30.08984375 C185.62406982 -29.75170654 185.62406982 -29.75170654 186.92626953 -29.40673828 C210.4497119 -22.93130741 232.29797352 -10.7987143 250.125 5.83984375 C252.12892359 7.70641581 254.1851854 9.46631699 256.28515625 11.22265625 C269.41669153 22.73922449 283.03697197 37.91556777 285.28515625 55.78515625 C285.8976508 68.0507523 281.38603805 77.6995378 273.6171875 86.9765625 C265.27051546 95.81983288 254.95998064 100.03924704 242.87109375 101.26171875 C231.14819966 101.56371368 224.13715912 98.43866769 215.34765625 90.91015625 C212.59107109 88.21516894 209.99711196 85.3922423 207.41015625 82.53515625 C191.73308275 65.63552534 174.23117711 51.62016725 150.15625 50.57421875 C124.73845182 50.14503836 102.95280592 56.97420026 84.16015625 74.59765625 C69.0330161 90.32507974 63.58086661 111.2838497 62.97265625 132.59765625 C63.59819985 153.97492874 71.78082473 173.16596217 87.34765625 187.91015625 C104.85512049 202.79860882 127.13284094 212.3594353 150.34765625 210.91015625 C160.30089312 209.64735797 169.31194359 207.42153072 178.34765625 202.91015625 C179.58708984 202.29914063 179.58708984 202.29914063 180.8515625 201.67578125 C190.97263266 196.15224376 199.2985835 187.51360587 206.6875 178.78125 C213.35295205 171.26889346 220.80675793 166.09045569 230.34765625 162.91015625 C244.76123937 162.05941128 255.59059784 163.86355741 267.34765625 172.91015625 C276.59193256 181.24258218 281.2644833 191.9949577 282.6015625 204.234375 C283.15092599 215.23936617 279.13616308 225.41427849 272.34765625 233.91015625 C271.94015137 234.4215918 271.53264648 234.93302734 271.11279297 235.45996094 C255.58901768 254.73814265 237.02689418 269.81702975 214.34765625 279.91015625 C213.14882813 280.45285156 211.95 280.99554688 210.71484375 281.5546875 C171.42270398 298.31537347 121.86172998 298.84192966 82.05224609 283.3503418 C61.2601369 274.8391243 43.80110765 262.78288862 27.59765625 247.23046875 C25.29347734 245.10630381 23.52066797 243.95528974 20.47265625 243.16015625 C15.60163268 244.32920191 12.92316189 247.52283511 9.34765625 250.91015625 C-14.01004733 271.72897901 -40.80392861 285.95777023 -71.65234375 291.91015625 C-73.30556641 292.24853516 -73.30556641 292.24853516 -74.9921875 292.59375 C-116.50381595 299.6173044 -160.84866279 289.41229895 -195.44042969 265.68359375 C-228.87764608 241.9230503 -254.01582248 205.88491162 -263.65234375 165.91015625 C-263.81605469 165.25772949 -263.97976563 164.60530273 -264.1484375 163.93310547 C-269.17663209 143.03597032 -268.66994748 117.77851895 -263.65234375 96.91015625 C-263.45366699 96.0804834 -263.25499023 95.25081055 -263.05029297 94.39599609 C-257.15561758 70.60976664 -247.32075924 46.93788002 -231.65234375 27.91015625 C-231.19456543 27.34699707 -230.73678711 26.78383789 -230.26513672 26.20361328 C-202.45934512 -7.86801033 -162.37956467 -28.47277202 -118.85888672 -33.77636719 C-77.31526032 -37.83773587 -32.79956038 -26.22044659 0 0 Z M-163.90234375 78.3125 C-177.44926345 94.21425535 -184.65580114 115.20605483 -183.5 136.08984375 C-181.41309681 160.05734718 -169.73600794 178.94689547 -151.83984375 194.22265625 C-132.78834746 208.66393469 -110.78857411 213.24445327 -87.22509766 210.64208984 C-73.26156864 208.39687378 -59.08377756 201.44692329 -48.65234375 191.91015625 C-47.31429687 190.70939453 -47.31429687 190.70939453 -45.94921875 189.484375 C-35.92357577 180.02027759 -29.16440989 168.95071103 -24.65234375 155.91015625 C-24.33265625 154.99878906 -24.01296875 154.08742188 -23.68359375 153.1484375 C-17.54487498 131.86186177 -21.1787946 108.64244215 -31.5859375 89.46875 C-34.18838358 84.88474599 -37.0992104 80.80832527 -40.65234375 76.91015625 C-41.379375 76.09160156 -42.10640625 75.27304688 -42.85546875 74.4296875 C-57.23232019 59.10210879 -77.71238397 50.79015416 -98.5625 49.70703125 C-124.67999631 49.21590094 -146.21481561 59.42737881 -163.90234375 78.3125 Z " fill="#CD2228" transform="translate(548.65234375,158.08984375)"/>
<path d="M0 0 C1.60294922 1.16015625 1.60294922 1.16015625 3.23828125 2.34375 C37.13869509 27.51194505 60.14960297 64.31917256 66.57836914 106.15039062 C68.57552353 119.77864214 68.45372925 133.41081483 68.43359375 147.15625 C68.43608234 149.21926978 68.44043205 151.28228013 68.44494683 153.34529638 C68.45885472 159.7979498 68.45754163 166.25047038 68.44604492 172.703125 C68.43452191 179.31597814 68.44874049 185.92842766 68.4754414 192.54122782 C68.49769625 198.2717719 68.50421551 204.0021901 68.49836498 209.73277426 C68.49502411 213.13284632 68.49721854 216.53265868 68.51461601 219.93269348 C68.52959799 223.71910285 68.5187982 227.50463262 68.50170898 231.29101562 C68.51137695 232.38947815 68.52104492 233.48794067 68.53100586 234.61968994 C68.39396335 249.21987513 63.02566443 262.2422942 53.16796875 272.9921875 C40.29040026 284.91844012 24.56150634 291.80818743 7 292 C-7.2284879 290.95280989 -17.9157459 286.09298422 -27.296875 275.26171875 C-29.27345168 272.63686119 -30.33942933 270.220282 -31 267 C-34.06081916 269.037473 -37.11661369 271.07937813 -40.15625 273.1484375 C-67.41514616 291.44979365 -98.57209707 295.37133279 -130.34472656 289.54345703 C-171.21511617 281.17848027 -205.24689318 256.57401474 -228.24072266 222.14208984 C-238.75389444 206.01496229 -246.37959773 188.67797616 -251 170 C-251.17789063 169.30213379 -251.35578125 168.60426758 -251.5390625 167.88525391 C-258.57292504 138.98919758 -253.94377802 107.82695163 -245 80 C-244.65412842 78.92322998 -244.65412842 78.92322998 -244.30126953 77.82470703 C-231.6207137 39.35943345 -204.00325933 7.62605371 -168.15234375 -10.92529297 C-154.64633501 -17.66910541 -140.64653663 -22.418961 -126 -26 C-125.29182129 -26.17934082 -124.58364258 -26.35868164 -123.85400391 -26.54345703 C-82.07411145 -36.70340673 -34.19739224 -25.28248585 0 0 Z M-141 85 C-155.56385338 101.58215117 -160.27054526 118.7853049 -159.21142578 140.41943359 C-157.98152665 155.43101994 -150.4068836 167.55831077 -140 178 C-139.31164062 178.7115625 -138.62328125 179.423125 -137.9140625 180.15625 C-124.66703085 192.96007241 -106.69074569 197.65161729 -88.71118164 197.47290039 C-70.50694462 196.86005818 -55.44088914 188.68326692 -42.8125 175.76171875 C-30.28652161 161.20516183 -24.58843246 143.1524893 -25.79296875 124.10791016 C-27.69086382 104.78429455 -37.84510352 89.22794953 -52.4375 77.125 C-80.06524473 56.93360011 -116.79747969 61.65801375 -141 85 Z " fill="#474543" transform="translate(1084,157)"/>
<path d="M0 0 C11.68428664 10.45149922 22.36193933 21.50125503 30.88818359 34.68896484 C31.31534668 35.34155273 31.74250977 35.99414062 32.18261719 36.66650391 C51.8333163 67.09764241 57.4954259 101.04394467 57.13818359 136.68896484 C57.12408619 139.07852714 57.1108447 141.4680946 57.09838867 143.85766602 C57.06302106 149.68846286 57.01000481 155.51892445 56.94958401 161.34951115 C56.89709443 166.51420346 56.85871233 171.67890241 56.82519531 176.84375 C56.77372379 184.69151766 56.7037894 192.5389698 56.6217041 200.38647461 C56.58996576 203.44602611 56.56398861 206.50554301 56.54284668 209.56518555 C56.51701796 213.19385686 56.47646142 216.82209201 56.4252491 220.45049095 C56.40079595 222.41785177 56.39037079 224.38537159 56.38047791 226.3528595 C56.13052107 241.54523231 51.96890141 254.18917412 41.39208984 265.30615234 C28.03427017 278.01796201 11.97565204 284.32290534 -6.33447266 283.99365234 C-18.85120852 282.98402939 -28.8573388 276.71443654 -37.11181641 267.43896484 C-39.19587221 264.91725732 -41.1602959 262.31422458 -43.11181641 259.68896484 C-47.04051227 260.25794838 -49.0134448 262.14464741 -51.92431641 264.75146484 C-71.6200916 281.22143398 -96.56094178 285.66043701 -121.65869141 283.46630859 C-152.10279332 280.10989363 -183.42170397 269.53477332 -207.11181641 249.68896484 C-208.24798233 248.77681749 -209.38473145 247.86539622 -210.52197266 246.95458984 C-224.16542923 235.84702242 -234.47132794 222.97598289 -243.11181641 207.68896484 C-243.47259277 207.05265137 -243.83336914 206.41633789 -244.20507812 205.76074219 C-264.80217034 168.73535604 -269.58108873 121.91489232 -258.42041016 81.22338867 C-246.16505877 38.61388277 -218.05944248 2.2740708 -179.19775391 -19.37744141 C-121.82066197 -50.35192729 -49.63835664 -42.87390033 0 0 Z M-152.11181641 76.68896484 C-152.74603516 77.30255859 -153.38025391 77.91615234 -154.03369141 78.54833984 C-166.10995176 91.05207844 -170.34270324 108.77238132 -170.11181641 125.68896484 C-168.80292433 145.13828309 -161.31225265 161.41877108 -147.11181641 174.68896484 C-131.32614025 187.02434321 -113.59840517 190.13694208 -94.11181641 188.68896484 C-76.24559927 186.36423249 -60.25874674 175.84740663 -49.23681641 161.87646484 C-39.32791692 147.82090634 -34.04497222 131.51599223 -36.61572266 114.31787109 C-40.20613166 95.58619442 -49.35026067 79.5486906 -64.73681641 68.12646484 C-92.08852884 49.61402533 -128.9145468 52.82414791 -152.11181641 76.68896484 Z " fill="#474543" transform="translate(1818.11181640625,165.31103515625)"/>
<path d="M0 0 C10.78355967 9.59449795 17.06551769 20.97607213 18.26953125 35.40234375 C18.76187735 48.89262688 15.18609738 63.16386665 5.828125 73.234375 C-3.14841612 81.30139873 -14.82318769 84.55338612 -26.7734375 84.09765625 C-43.14460583 82.70651017 -58.90982753 78.85815402 -74.83129883 74.96508789 C-75.64215942 74.76755417 -76.45302002 74.57002045 -77.28845215 74.36650085 C-78.81628646 73.99328995 -80.34336569 73.61696806 -81.86950684 73.2368927 C-88.80057907 71.53985854 -95.54463908 70.66427769 -102.6953125 70.578125 C-103.98953125 70.55234375 -105.28375 70.5265625 -106.6171875 70.5 C-109.87761405 70.54503253 -109.87761405 70.54503253 -111.85546875 72.17578125 C-113.27333945 74.32545618 -113.60334976 76.29760071 -113.9453125 78.828125 C-105.34578149 85.75552498 -93.47973843 86.3071779 -82.8828125 87.703125 C-54.69061918 91.7030562 -29.98499844 100.28744029 -7.9453125 118.828125 C-7.38328125 119.26769531 -6.82125 119.70726562 -6.2421875 120.16015625 C11.81457342 134.36797603 24.0334556 158.19132711 27.3046875 180.578125 C29.93891118 203.62758219 24.65634241 226.27321985 10.3671875 244.890625 C-14.36480913 274.12365551 -47.53994292 286.36871058 -85.1328125 289.515625 C-129.98820855 291.98756416 -177.85898865 285.294955 -212.5078125 254.5546875 C-224.22304429 243.51808194 -233.20340363 228.1851646 -234.18359375 211.859375 C-234.51593453 198.30076923 -232.72692735 186.68228642 -223.9453125 175.828125 C-223.46707031 175.21453125 -222.98882813 174.6009375 -222.49609375 173.96875 C-215.7361814 166.27232587 -203.58710649 160.44302493 -193.44824219 159.62719727 C-175.29433106 158.97058693 -161.67441935 161.93856725 -145.03613281 169.05419922 C-125.02572603 177.55909095 -104.72829117 181.27066858 -82.9453125 180.828125 C-82.6153125 179.178125 -82.2853125 177.528125 -81.9453125 175.828125 C-84.8389141 173.4109895 -87.13541101 172.30235644 -90.80786133 171.49707031 C-92.25767143 171.17092743 -92.25767143 171.17092743 -93.73677063 170.8381958 C-94.78140976 170.61315369 -95.82604889 170.38811157 -96.90234375 170.15625 C-98.54332283 169.78799103 -98.54332283 169.78799103 -100.217453 169.41229248 C-103.72887714 168.62477472 -107.24292863 167.85004377 -110.7578125 167.078125 C-124.09673383 164.14512682 -137.37433408 161.18290098 -150.44921875 157.2109375 C-151.79739433 156.80152924 -151.79739433 156.80152924 -153.17280579 156.3838501 C-176.30268324 149.14575085 -199.00808426 138.47144923 -211.29443359 116.38989258 C-218.15205895 103.14901207 -220.14741647 89.48766971 -220.18554688 74.72802734 C-220.19513673 72.49407007 -220.22614933 70.26108113 -220.2578125 68.02734375 C-220.44753115 42.53592736 -212.92298657 19.35646657 -194.9453125 0.828125 C-194.13513672 -0.09226562 -194.13513672 -0.09226562 -193.30859375 -1.03125 C-147.22195892 -51.64528724 -48.33409844 -39.30465148 0 0 Z " fill="#474543" transform="translate(1395.9453125,159.171875)"/>
<path d="M0 0 C9.12974286 8.23692889 13.38681818 19.39697516 15.91845703 31.14111328 C16.1304071 32.08703339 16.34235718 33.03295349 16.56072998 34.00753784 C17.25247363 37.10469209 17.93091676 40.20459853 18.609375 43.3046875 C19.09122495 45.47243659 19.57397674 47.6399854 20.05758667 49.80734253 C21.32428586 55.4942336 22.57999781 61.18349227 23.83300781 66.87341309 C25.60160347 74.89529783 27.3848789 82.91393368 29.16696167 90.93283081 C30.11479024 95.19783823 31.05828022 99.46376909 31.99832153 103.73049927 C32.43000595 105.68248084 32.86171639 107.63445665 33.29345703 109.58642578 C33.58181931 110.90202484 33.58181931 110.90202484 33.87600708 112.24420166 C35.0801419 120.30039333 35.0801419 120.30039333 38.4765625 127.234375 C39.6377639 122.28887934 40.7956404 117.34261632 41.9508667 112.39572144 C42.38515654 110.53604761 42.81976828 108.67644893 43.25469971 106.81692505 C46.11689005 94.56867571 48.91923441 82.30834189 51.64909744 70.02999878 C52.11665462 67.92817673 52.58528699 65.82659735 53.05429077 63.72509766 C53.36676321 62.32470769 53.67923269 60.92431707 53.99169922 59.52392578 C54.14614187 58.83188175 54.30058453 58.13983772 54.45970726 57.42682266 C55.38299518 53.28581513 56.29850189 49.14317582 57.2087326 44.99927998 C57.64651369 43.01256037 58.08815722 41.02674478 58.53143311 39.04124451 C59.07567481 36.60281841 59.61377272 34.16300905 60.14434814 31.72157288 C63.74675885 15.7000597 69.90728972 3.75626076 84.01953125 -5.34765625 C100.49792278 -14.85744341 121.2328712 -15.68575702 139.4765625 -11.765625 C149.90314881 -8.86821745 158.84810214 -4.34337505 167.4765625 2.234375 C168.22550781 2.78867188 168.97445313 3.34296875 169.74609375 3.9140625 C178.20621625 10.67569004 184.25978408 20.65802811 185.9765625 31.34765625 C187.41280982 44.797514 183.68900694 56.64105151 178.6640625 69.046875 C178.14821675 70.34662901 177.63380169 71.64695148 177.12060547 72.94775391 C176.25137064 75.15100278 175.38138477 77.35392334 174.50787354 79.55548096 C170.43412219 89.83044199 166.47790933 100.15100295 162.50543213 110.46542358 C160.36282152 116.02688655 158.2163767 121.58686912 156.07016754 127.14694405 C154.846852 130.31630254 153.62385344 133.48578334 152.40087891 136.65527344 C152.15832619 137.28387551 151.91577347 137.91247759 151.66587067 138.56012821 C148.58923619 146.53377497 145.51358396 154.50780066 142.43777466 162.48176575 C138.7899014 171.93799934 135.13854517 181.39288526 131.48605347 190.84733582 C128.80786673 197.78146142 126.13547101 204.71778556 123.46751404 211.65585327 C121.75405832 216.10943463 120.03687929 220.56157454 118.31893921 225.01342773 C117.52434832 227.07496989 116.73132759 229.13711813 115.94009399 231.19995117 C93.37153471 290.02704938 93.37153471 290.02704938 66.2265625 303.484375 C48.06687511 311.40937276 27.99979445 311.6235855 9.58496094 304.50292969 C0.84669703 300.86770216 -5.96233793 295.99047228 -12.5234375 289.234375 C-13.21953125 288.54730469 -13.915625 287.86023438 -14.6328125 287.15234375 C-22.55194828 278.88022323 -27.61207546 268.77129791 -32 258.30859375 C-32.3364151 257.50674149 -32.6728302 256.70488922 -33.0194397 255.8787384 C-38.36060203 242.96688682 -43.1541266 229.83289965 -48.03339386 216.74144745 C-49.20771088 213.59257348 -50.38494892 210.44479484 -51.56217766 207.29700851 C-55.55787019 196.61266872 -59.54232282 185.92415387 -63.5234375 175.234375 C-63.81817963 174.44304924 -64.11292175 173.65172348 -64.41659546 172.83641815 C-71.32874594 154.27809562 -78.22579877 135.7142119 -85.10655212 117.14422607 C-87.91713518 109.55993383 -90.73458636 101.97826291 -93.56097412 94.39984131 C-95.16448762 90.09909059 -96.76445711 85.7970271 -98.3637085 81.49468994 C-99.08149078 79.56629639 -99.80086848 77.63849573 -100.52203369 75.71136475 C-110.10594183 50.09506323 -110.10594183 50.09506323 -109.9609375 37.671875 C-109.95336426 36.75510986 -109.94579102 35.83834473 -109.93798828 34.89379883 C-109.7778439 28.34015288 -109.08250696 22.87788389 -105.5234375 17.234375 C-105.09933594 16.54730469 -104.67523438 15.86023438 -104.23828125 15.15234375 C-93.19838696 -0.93084487 -74.01855875 -9.573716 -55.3359375 -13.140625 C-35.6402278 -15.74346402 -15.96376526 -12.23735319 0 0 Z " fill="#474543" transform="translate(109.5234375,139.765625)"/>
<path d="M0 0 C11.97913583 10.41579021 18.41402198 24.66218804 19.56761885 40.45101285 C19.84867018 47.06560506 19.80324011 53.68386746 19.78271484 60.30297852 C19.78678695 62.52037819 19.79213239 64.73777583 19.79864502 66.95516968 C19.81224758 72.94061103 19.80704944 78.92589614 19.79750776 84.91134 C19.78987539 91.19528684 19.79696658 97.47922093 19.80166626 103.76316833 C19.80746119 114.9860691 19.79818021 126.20890589 19.78288825 137.4317916 C19.76948413 147.58306201 19.771819 157.73422948 19.78564453 167.88549805 C19.80174114 179.70960582 19.80765304 191.53366385 19.79880774 203.35778469 C19.79414592 209.60387481 19.79346531 215.8498942 19.80341721 222.09597969 C19.81212224 227.96892815 19.8060005 233.84168334 19.78873444 239.71461105 C19.78478863 241.86192314 19.78587071 244.00925167 19.79252243 246.15655708 C19.84688753 265.49893881 18.10738748 282.19296768 4.39453125 297.08203125 C-7.44049594 308.12293324 -23.28044802 312.78626768 -39.1953125 312.36328125 C-56.3354101 310.94966495 -69.64565653 302.59699826 -80.5859375 289.7578125 C-86.68475616 281.37005449 -88.06017399 271.7159782 -87.9931488 261.57679749 C-87.99853434 260.57947883 -88.00391988 259.58216017 -88.00946862 258.55461973 C-88.02366666 255.24469881 -88.01666463 251.93518244 -88.00952148 248.62524414 C-88.01522928 246.23917827 -88.02219512 243.85311514 -88.03031921 241.46705627 C-88.04636408 235.67790582 -88.04836065 229.88888016 -88.04310631 224.0997122 C-88.03905169 219.39087503 -88.04052343 214.68206984 -88.04585457 209.97323418 C-88.0469772 208.96488456 -88.0469772 208.96488456 -88.04812251 207.93616424 C-88.04965411 206.57018188 -88.05119246 205.20419953 -88.05273748 203.83821719 C-88.06643922 191.05228263 -88.06104107 178.26640939 -88.04955227 165.48047625 C-88.03962062 153.80420808 -88.05256347 142.12809839 -88.07648646 130.45185465 C-88.10091585 118.43714016 -88.11047603 106.42249937 -88.10383373 94.40776056 C-88.10035024 87.67258654 -88.10251588 80.93753435 -88.12008476 74.20237923 C-88.13558334 67.86816436 -88.13156562 61.53425151 -88.11277962 55.20004845 C-88.10910196 52.88138511 -88.11217804 50.56269924 -88.12266541 48.2440567 C-88.19647927 30.56930709 -87.05742989 17.55420374 -74.64453125 3.9296875 C-54.47887586 -15.59876316 -21.96022109 -17.33024768 0 0 Z " fill="#474543" transform="translate(1522.60546875,136.91796875)"/>
<path d="M0 0 C12.26135947 10.25231915 19.71414914 24.91635822 21.25 40.74609375 C22.2146016 57.62662175 17.29668285 72.15254432 6.5 85.12109375 C5.96761719 85.76691406 5.43523437 86.41273437 4.88671875 87.078125 C-4.77295643 97.69657688 -19.30043133 104.02881924 -33.5 105.12109375 C-34.12390625 105.17265625 -34.7478125 105.22421875 -35.390625 105.27734375 C-53.60788893 106.08699992 -68.31993632 98.30993529 -81.39453125 86.39453125 C-85.51598526 82.17073865 -88.16156491 77.33895965 -90.8125 72.12109375 C-91.15039551 71.45658203 -91.48829102 70.79207031 -91.83642578 70.10742188 C-95.66094664 62.22987714 -96.87083784 55.03593488 -96.8125 46.30859375 C-96.80686035 45.42494141 -96.8012207 44.54128906 -96.79541016 43.63085938 C-96.67341019 37.06460395 -96.02065614 31.24132323 -93.5 25.12109375 C-93.0978125 24.14011719 -92.695625 23.15914062 -92.28125 22.1484375 C-88.85239332 14.6144774 -84.36990729 8.91045342 -78.5 3.12109375 C-77.86191406 2.47269531 -77.22382812 1.82429687 -76.56640625 1.15625 C-55.19792052 -19.1460327 -22.3606714 -16.8054421 0 0 Z " fill="#484544" transform="translate(1526.5,12.87890625)"/>
</svg>
